<svg xmlns="http://www.w3.org/2000/svg" viewBox="0 0 1120 650" role="img" aria-labelledby="title desc">
  <title id="title">FieldKeeper product preview</title>
  <desc id="desc">A stylized FieldKeeper field journal preview with mobile observation cards and a desktop dashboard.</desc>
  <defs>
    <linearGradient id="bg" x1="0" y1="0" x2="1" y2="1">
      <stop stop-color="#192414"/>
      <stop offset=".52" stop-color="#0a0f0b"/>
      <stop offset="1" stop-color="#07090a"/>
    </linearGradient>
    <radialGradient id="sun" cx="20%" cy="35%" r="55%">
      <stop stop-color="#c7a366" stop-opacity=".28"/>
      <stop offset=".55" stop-color="#496135" stop-opacity=".08"/>
      <stop offset="1" stop-color="#000" stop-opacity="0"/>
    </radialGradient>
    <filter id="shadow" x="-15%" y="-15%" width="130%" height="130%">
      <feDropShadow dx="0" dy="20" stdDeviation="22" flood-color="#000" flood-opacity=".55"/>
    </filter>
  </defs>
  <rect width="1120" height="650" rx="38" fill="url(#bg)"/>
  <rect width="1120" height="650" rx="38" fill="url(#sun)"/>
  <path d="M0 498c145-74 248-72 382-26 114 39 220 47 355-25 121-64 226-75 383-23v226H0Z" fill="#10180f" opacity=".92"/>
  <path d="M0 520c160-46 280-44 419-6 134 37 254 28 379-30 103-47 201-54 322-28" fill="none" stroke="#d0b06e" stroke-opacity=".12" stroke-width="2"/>
  <g filter="url(#shadow)">
    <rect x="290" y="88" width="690" height="438" rx="28" fill="#0d120e" stroke="#273421" stroke-width="2"/>
    <rect x="316" y="116" width="638" height="42" rx="12" fill="#151d15"/>
    <circle cx="342" cy="137" r="6" fill="#a74638"/>
    <circle cx="364" cy="137" r="6" fill="#d2a24d"/>
    <circle cx="386" cy="137" r="6" fill="#7e9c4f"/>
    <text x="420" y="143" font-family="Segoe UI, Arial, sans-serif" font-size="18" fill="#f2eee6" opacity=".82">FieldKeeper — Habitat Overview</text>
    <rect x="322" y="185" width="178" height="128" rx="18" fill="#121b13" stroke="#33432c"/>
    <rect x="522" y="185" width="178" height="128" rx="18" fill="#121b13" stroke="#33432c"/>
    <rect x="722" y="185" width="178" height="128" rx="18" fill="#121b13" stroke="#33432c"/>
    <circle cx="370" cy="246" r="34" fill="#8fa35b"/>
    <path d="M353 251c16-24 37-36 64-37-2 24-13 42-34 54-12 7-25 10-39 8 1-9 4-17 9-25Z" fill="#cfdd9d"/>
    <text x="322" y="350" font-family="Segoe UI, Arial, sans-serif" font-size="18" fill="#f2eee6">Recent observations</text>
    <rect x="322" y="372" width="572" height="112" rx="20" fill="#111812" stroke="#2f3f2b"/>
    <path d="M350 440c80-56 171-62 272-18 73 31 141 24 205-22" fill="none" stroke="#8fa35b" stroke-width="5" stroke-linecap="round"/>
    <circle cx="350" cy="440" r="8" fill="#d7b46d"/>
    <circle cx="522" cy="421" r="8" fill="#d7b46d"/>
    <circle cx="704" cy="423" r="8" fill="#d7b46d"/>
    <circle cx="827" cy="400" r="8" fill="#d7b46d"/>
  </g>
  <g filter="url(#shadow)">
    <rect x="96" y="112" width="218" height="448" rx="38" fill="#090d0a" stroke="#2e3828" stroke-width="4"/>
    <rect x="115" y="145" width="180" height="382" rx="26" fill="#131d12"/>
    <rect x="130" y="160" width="150" height="132" rx="18" fill="#25351d"/>
    <path d="M150 253c26-44 62-66 108-67-4 44-26 74-66 92-16 7-33 9-52 7 0-11 3-22 10-32Z" fill="#9eb466"/>
    <path d="M141 312h126" stroke="#d8cfb8" stroke-opacity=".28"/>
    <text x="140" y="334" font-family="Segoe UI, Arial, sans-serif" font-size="17" fill="#f2eee6">American Goldfinch</text>
    <text x="140" y="357" font-family="Segoe UI, Arial, sans-serif" font-size="13" fill="#b9c28f">Carduelis tristis</text>
    <rect x="140" y="388" width="118" height="20" rx="10" fill="#24331d"/>
    <rect x="140" y="422" width="96" height="20" rx="10" fill="#24331d"/>
    <rect x="140" y="456" width="132" height="20" rx="10" fill="#24331d"/>
  </g>
</svg>