<svg xmlns="http://www.w3.org/2000/svg" viewBox="0 0 900 520" role="img" aria-labelledby="title desc">
  <title id="title">Building slow workshop thumbnail</title>
  <desc id="desc">A cinematic horizon with mountains and a long-term craft path.</desc>
  <defs>
    <linearGradient id="sky" x1="0" y1="0" x2="0" y2="1">
      <stop stop-color="#222a33"/>
      <stop offset=".5" stop-color="#11151b"/>
      <stop offset="1" stop-color="#080a0d"/>
    </linearGradient>
    <radialGradient id="sun" cx="50%" cy="68%" r="42%">
      <stop stop-color="#d7a656" stop-opacity=".65"/>
      <stop offset=".26" stop-color="#d7a656" stop-opacity=".24"/>
      <stop offset="1" stop-color="#000" stop-opacity="0"/>
    </radialGradient>
  </defs>
  <rect width="900" height="520" rx="28" fill="url(#sky)"/>
  <rect width="900" height="520" rx="28" fill="url(#sun)"/>
  <path d="M0 355 120 245l103 96 103-132 160 151 130-88 126 115 158-170v303H0Z" fill="#101217"/>
  <path d="M0 410c147-45 279-55 396-30 125 27 249 23 372-12 51-15 95-21 132-19v171H0Z" fill="#090b0e" opacity=".84"/>
  <path d="M120 410c101-78 221-103 359-75 105 21 198 7 280-42" fill="none" stroke="#c79a4b" stroke-opacity=".38" stroke-width="5" stroke-linecap="round"/>
  <circle cx="552" cy="326" r="8" fill="#f2eee6"/>
  <path d="M552 334v44M535 382h34" stroke="#f2eee6" stroke-width="4" stroke-linecap="round"/>
</svg>