<svg xmlns="http://www.w3.org/2000/svg" viewBox="0 0 900 520" role="img" aria-labelledby="title desc">
  <title id="title">Field guide workshop thumbnail</title>
  <desc id="desc">A warm field journal scene with a bird, notes, and botanical observation marks.</desc>
  <defs>
    <linearGradient id="bg" x1="0" y1="0" x2="1" y2="1">
      <stop stop-color="#273419"/>
      <stop offset=".55" stop-color="#151b11"/>
      <stop offset="1" stop-color="#080b08"/>
    </linearGradient>
    <radialGradient id="light" cx="25%" cy="25%" r="60%">
      <stop stop-color="#d8b66e" stop-opacity=".34"/>
      <stop offset="1" stop-color="#000" stop-opacity="0"/>
    </radialGradient>
  </defs>
  <rect width="900" height="520" rx="28" fill="url(#bg)"/>
  <rect width="900" height="520" rx="28" fill="url(#light)"/>
  <path d="M0 382c120-61 214-62 342-22 112 35 213 33 310-9 93-40 172-42 248-16v185H0Z" fill="#0e130b" opacity=".66"/>
  <path d="M72 402c95-66 190-98 285-96 115 2 197 51 299 40 58-6 108-28 149-65" fill="none" stroke="#8fa35b" stroke-width="6" stroke-linecap="round" opacity=".8"/>
  <g transform="translate(270 112)">
    <path d="M48 155c38-70 92-105 160-106-4 66-34 114-89 146-31 18-64 25-99 22 1-23 10-44 28-62Z" fill="#aabf72"/>
    <path d="M49 218c34-54 77-94 128-121 24-13 48-22 73-27" fill="none" stroke="#f2eee6" stroke-width="6" stroke-linecap="round" opacity=".75"/>
    <circle cx="213" cy="61" r="11" fill="#d7b46d"/>
  </g>
  <rect x="92" y="92" width="210" height="278" rx="18" fill="#f2eee6" opacity=".08" stroke="#f2eee6" stroke-opacity=".12"/>
  <path d="M122 150h128M122 198h112M122 246h142M122 294h90" stroke="#f2eee6" stroke-opacity=".22" stroke-width="5" stroke-linecap="round"/>
</svg>