<svg xmlns="http://www.w3.org/2000/svg" viewBox="0 0 96 96" role="img" aria-labelledby="title desc">
  <title id="title">FieldKeeper product icon</title>
  <desc id="desc">A refined botanical field mark with a journal leaf and observation point.</desc>
  <defs>
    <linearGradient id="fkLeaf" x1="24" y1="14" x2="74" y2="82" gradientUnits="userSpaceOnUse">
      <stop stop-color="#b4c47b"/>
      <stop offset="1" stop-color="#6f8743"/>
    </linearGradient>
    <linearGradient id="fkLine" x1="18" y1="80" x2="78" y2="20" gradientUnits="userSpaceOnUse">
      <stop stop-color="#f2eee6" stop-opacity=".88"/>
      <stop offset="1" stop-color="#f2eee6" stop-opacity=".48"/>
    </linearGradient>
  </defs>
  <rect x="12" y="12" width="72" height="72" rx="22" fill="#0d1312" stroke="#2e3e2f" stroke-width="1.5"/>
  <path d="M67.5 20.5c-15.9 1.4-28.4 7.6-37.3 18.8-7.2 9.1-10 19.7-8.3 31.8 12.3 1.8 23-.9 32.1-8.1 11.2-8.9 17.5-21.4 18.9-37.5.2-2.9-2.5-5.3-5.4-5Z" fill="url(#fkLeaf)"/>
  <path d="M25.5 69.5c11-16 25.4-27.8 43.1-35.5" fill="none" stroke="url(#fkLine)" stroke-width="4" stroke-linecap="round"/>
  <path d="M42.5 54.5c-1.3-7.5-4.6-13-10-16.6" fill="none" stroke="#162314" stroke-width="3" stroke-linecap="round"/>
  <path d="M52.6 45.7c4.8 1.2 8.5 3.8 11 7.6" fill="none" stroke="#162314" stroke-width="3" stroke-linecap="round"/>
  <circle cx="67" cy="25" r="4.3" fill="#d7b46d"/>
</svg>