<svg xmlns="http://www.w3.org/2000/svg" viewBox="0 0 96 96" role="img" aria-labelledby="title desc">
  <title id="title">Geomancer product icon</title>
  <desc id="desc">A controllable 3D modeling globe with grid lines and construction nodes.</desc>
  <defs>
    <linearGradient id="geoStroke" x1="18" y1="20" x2="80" y2="76">
      <stop stop-color="#b8c883"/>
      <stop offset="1" stop-color="#5b7a4e"/>
    </linearGradient>
  </defs>
  <rect x="12" y="12" width="72" height="72" rx="22" fill="#0c1212" stroke="#304036" stroke-width="1.5"/>
  <circle cx="48" cy="48" r="28" fill="none" stroke="url(#geoStroke)" stroke-width="3.4"/>
  <path d="M20 48h56M48 20c-8.1 7.8-12.1 17.1-12.1 28S39.9 68.2 48 76M48 20c8.1 7.8 12.1 17.1 12.1 28S56.1 68.2 48 76" fill="none" stroke="#dfe8c8" stroke-opacity=".72" stroke-width="2.2" stroke-linecap="round"/>
  <path d="M30 29c11.2 6.5 24.8 6.5 36 0M30 67c11.2-6.5 24.8-6.5 36 0" fill="none" stroke="#dfe8c8" stroke-opacity=".35" stroke-width="2"/>
  <circle cx="48" cy="48" r="6" fill="#d7b46d"/>
  <circle cx="48" cy="48" r="2.5" fill="#12170f"/>
</svg>